<svg width="32" height="32" viewBox="0 0 32 32" fill="none" xmlns="http://www.w3.org/2000/svg">
<circle cx="16" cy="16" r="16" fill="#FFF8ED"/>
<path d="M22.6667 11.8334H9.33335C8.41288 11.8334 7.66669 12.5796 7.66669 13.5V21.8334C7.66669 22.7538 8.41288 23.5 9.33335 23.5H22.6667C23.5872 23.5 24.3334 22.7538 24.3334 21.8334V13.5C24.3334 12.5796 23.5872 11.8334 22.6667 11.8334Z" stroke="#FFBD59" stroke-width="2" stroke-linecap="round" stroke-linejoin="round"/>
<path d="M19.3334 23.5V10.1667C19.3334 9.72464 19.1578 9.30072 18.8452 8.98816C18.5326 8.67559 18.1087 8.5 17.6667 8.5H14.3334C13.8913 8.5 13.4674 8.67559 13.1548 8.98816C12.8423 9.30072 12.6667 9.72464 12.6667 10.1667V23.5" stroke="#FFBD59" stroke-width="2" stroke-linecap="round" stroke-linejoin="round"/>
</svg>
